# xmcd
#
# Track frame offsets: 
#        150
#        11573
#        27772
#        47997
#        63657
#        76802
#        90131
#        105891
#        120936
#        143344
#        160736
#        178671
#        197429
#
# Disc length: 2816 seconds
#
# Revision: 1
# Processed by: cddbd v1.5.1PL0 Copyright (c) Steve Scherf et al.
# Submitted via: ExactAudioCopy v0.95b2
#
DISCID=8a0afe0d
DTITLE=Diamond Rio - One More Day
DYEAR=2001
DGENRE=Country
TTITLE0=That's Just That
TTITLE1=One More Day
TTITLE2=Sweet Summer
TTITLE3=I'm Already Gone
TTITLE4=I Could Do It With My Eyes Closed
TTITLE5='Till The Heartache's Gone
TTITLE6=Here I Go Fallin'
TTITLE7=I Think I Love You
TTITLE8=Hearts Against The Wind
TTITLE9=You Make Me Feel
TTITLE10=The Love Of A Woman
TTITLE11=I'm Trying
TTITLE12=Stuff
EXTD=
EXTT0=
EXTT1=
EXTT2=
EXTT3=
EXTT4=
EXTT5=
EXTT6=
EXTT7=
EXTT8=
EXTT9=
EXTT10=
EXTT11=
EXTT12=
PLAYORDER=
